<svg xmlns="http://www.w3.org/2000/svg" width="480" height="680" viewBox="0 0 480 680"><defs><linearGradient id="g" x2=".8" y2="1"><stop stop-color="#61517d"/><stop offset="1" stop-color="#201d38"/></linearGradient><radialGradient id="a"><stop stop-color="#d5bcfc" stop-opacity=".2"/><stop offset="1" stop-color="#d5bcfc" stop-opacity="0"/></radialGradient></defs><rect width="480" height="680" fill="url(#g)"/><circle cx="240" cy="305" r="230" fill="url(#a)"/><rect x="24" y="24" width="432" height="632" rx="12" fill="none" stroke="#baa4da" stroke-opacity=".35"/><circle cx="240" cy="305" r="130" fill="none" stroke="#ccb0ed" stroke-opacity=".3"/><circle cx="240" cy="305" r="114" fill="none" stroke="#ccb0ed" stroke-opacity=".18" stroke-dasharray="3 10"/><path d="m240 128 9 22 22 9-22 9-9 22-9-22-22-9 22-9Zm-135 296 5 14 14 5-14 5-5 14-5-14-14-5 14-5Z" fill="#c4a3e7" opacity=".65"/><text x="240" y="350" text-anchor="middle" fill="#e2d2f9" font-family="Microsoft YaHei,sans-serif" font-size="106" font-weight="300">狸</text><text x="240" y="508" text-anchor="middle" fill="#d2c0e7" font-family="Microsoft YaHei,sans-serif" font-size="27" letter-spacing="7">狸谱</text><text x="240" y="548" text-anchor="middle" fill="#b7a3cd" font-family="Microsoft YaHei,sans-serif" font-size="16" letter-spacing="5">角色占位图</text><text x="240" y="68" text-anchor="middle" fill="#baacd0" font-family="sans-serif" font-size="12" letter-spacing="6">JIELUO WISH</text></svg>
